<!DOCTYPE svg PUBLIC "-//W3C//DTD SVG 1.1//EN" "http://www.w3.org/Graphics/SVG/1.1/DTD/svg11.dtd">
<!-- Uploaded to: SVG Repo, www.svgrepo.com, Transformed by: SVG Repo Mixer Tools -->
<svg fill="#ffffff" width="800px" height="800px" viewBox="0 0 32 32" style="fill-rule:evenodd;clip-rule:evenodd;stroke-linejoin:round;stroke-miterlimit:2;" version="1.1" xml:space="preserve" xmlns="http://www.w3.org/2000/svg" xmlns:serif="http://www.serif.com/" xmlns:xlink="http://www.w3.org/1999/xlink" stroke="#ffffff">
<g id="SVGRepo_bgCarrier" stroke-width="0"/>
<g id="SVGRepo_tracerCarrier" stroke-linecap="round" stroke-linejoin="round"/>
<g id="SVGRepo_iconCarrier"> <g id="Icon"> <path d="M13.969,11.144c-0.213,-0.071 -0.398,-0.213 -0.522,-0.406c-0.928,-1.438 -7.296,-7.265 -7.296,-7.265l-0.007,-0.007l-0.125,-0.141l-0.066,-0.105c-0.066,-0.118 -0.108,-0.252 -0.121,-0.394l1.049,-1.088c3.562,0.188 8.437,2.679 10.782,4.995c0.364,-0.337 0.93,-0.359 1.321,-0.033l4.081,3.408c0.424,0.354 0.48,0.984 0.126,1.408l-0.001,0.002c2.342,2.317 4.812,6.457 5.273,9.679l-0.99,1.142c-0.142,-0 -0.279,-0.03 -0.402,-0.085l-0.111,-0.057l-0.151,-0.111l-0.008,-0.007c-0,-0 -5.085,-4.644 -7.251,-6.202l-0.047,0.056c-0.354,0.424 -0.984,0.48 -1.408,0.126l-0.169,-0.141l-10.423,12.483c-0.354,0.423 -0.985,0.48 -1.409,0.126l-2.208,-1.844c-0.424,-0.354 -0.481,-0.985 -0.127,-1.408l10.423,-12.483l-0.168,-0.141c-0.424,-0.354 -0.481,-0.984 -0.127,-1.408l0.082,-0.099Zm1.749,2.93l0.673,0.562l-9.783,11.715c0,0 -0.673,-0.562 -0.673,-0.562l9.783,-11.715Zm9.704,4.108c-0.898,-1.918 -2.214,-3.807 -3.493,-5.102l-1.079,1.293c1.217,0.914 3.049,2.478 4.572,3.809Zm-6.981,-4.439l0.168,0.14l2.406,-2.881l-2.546,-2.126c0,-0 -2.406,2.881 -2.406,2.881l2.377,1.985l0.001,0.001Zm-8.285,-9.246c1.991,0.723 3.99,1.864 5.394,3.023l-1.191,1.19c-1.02,-1.13 -2.741,-2.815 -4.203,-4.213Z"/> </g> </g>
</svg>