<!DOCTYPE svg PUBLIC "-//W3C//DTD SVG 1.1//EN" "http://www.w3.org/Graphics/SVG/1.1/DTD/svg11.dtd">
<!-- Uploaded to: SVG Repo, www.svgrepo.com, Transformed by: SVG Repo Mixer Tools -->
<svg fill="#fafafa" height="800px" width="800px" version="1.1" id="Layer_1" xmlns="http://www.w3.org/2000/svg" xmlns:xlink="http://www.w3.org/1999/xlink" viewBox="0 0 352 352" xml:space="preserve" stroke="#fafafa">
<g id="SVGRepo_bgCarrier" stroke-width="0"/>
<g id="SVGRepo_tracerCarrier" stroke-linecap="round" stroke-linejoin="round"/>
<g id="SVGRepo_iconCarrier"> <g> <g> <g> <path d="M272,168c-17.6,0-32,14.4-32,32c0,17.6,14.4,32,32,32c17.6,0,32-14.4,32-32C304,182.4,289.6,168,272,168z M272,216 c-8.8,0-16-7.2-16-16s7.2-16,16-16s16,7.2,16,16S280.8,216,272,216z"/> <path d="M312,72h-4v-8c0-22-18-40-40-40H40C18,24,0,42,0,64v52v124v48c0,22,18,40,40,40h272c22,0,40-18,40-40V112 C352,90,334,72,312,72z M336,288c0,13.2-10.8,24-24,24H40c-13.2,0-24-10.8-24-24v-48V116V64c0-13.2,10.8-24,24-24h228 c13.2,0,24,10.8,24,24v8H96c-4.4,0-8,3.6-8,8c0,4.4,3.6,8,8,8h216c13.2,0,24,10.8,24,24V288z"/> <path d="M60,72H48c-4.4,0-8,3.6-8,8c0,4.4,3.6,8,8,8h12c4.4,0,8-3.6,8-8C68,75.6,64.4,72,60,72z"/> </g> </g> </g> </g>
</svg>