<?xml version="1.0" encoding="iso-8859-1"?>
<!-- Uploaded to: SVG Repo, www.svgrepo.com, Generator: SVG Repo Mixer Tools -->
<svg version="1.1" id="Layer_1" xmlns="http://www.w3.org/2000/svg" xmlns:xlink="http://www.w3.org/1999/xlink" 
	 viewBox="0 0 511.978 511.978" xml:space="preserve">
<path d="M22.264,112.712h415.528c12.296,0,22.264,9.968,22.264,22.264v118.72c0,12.296-9.968,22.264-22.264,22.264H22.264
	C9.968,275.96,0,265.992,0,253.696v-118.72C0,122.68,9.968,112.712,22.264,112.712z"/>
<g>
	
		<rect x="446.056" y="307.088" transform="matrix(0.7071 -0.7071 0.7071 0.7071 -113.188 432.6588)" style="fill:#E21B1B;" width="39.232" height="91.743"/>
	<polygon style="fill:#E21B1B;" points="390.248,363.528 372.456,261.12 474.864,278.912 	"/>
</g>
<g>
	<path style="fill:#FFFFFF;" d="M72.608,156.352l9.984,38.4c2.176,8.416,4.2,16.208,5.6,24h0.472
		c1.712-7.648,4.2-15.76,6.696-23.864l12.32-38.528h11.52l11.696,37.744c2.808,9.04,5,16.992,6.712,24.648h0.472
		c1.464-8.264,3.392-16.44,5.768-24.488l10.752-37.896h13.6l-24.336,75.488h-12.48l-11.536-36c-2.664-8.144-4.904-16.424-6.712-24.8
		H112.8c-1.8,8.448-4.088,16.784-6.856,24.96l-12.168,35.872h-12.48l-22.72-75.536L72.608,156.352L72.608,156.352z"/>
	<path style="fill:#FFFFFF;" d="M189.248,156.352l9.984,38.4c2.176,8.416,4.2,16.208,5.6,24h0.472
		c1.712-7.648,4.2-15.76,6.696-23.864l12.32-38.528h11.536l11.696,37.744c2.808,9.04,5,16.992,6.712,24.648h0.472
		c1.464-8.264,3.392-16.44,5.768-24.488l10.752-37.896h13.6l-24.336,75.488H248l-11.536-36c-2.664-8.144-4.904-16.424-6.712-24.8
		h-0.312c-1.8,8.448-4.088,16.784-6.856,24.96l-12.168,35.872h-12.48L175.2,156.352H189.248z"/>
	<path style="fill:#FFFFFF;" d="M305.88,156.352l9.984,38.4c2.176,8.416,4.2,16.208,5.6,24h0.472
		c1.712-7.648,4.2-15.76,6.696-23.864l12.32-38.528h11.536l11.696,37.744c2.808,9.04,5,16.992,6.712,24.648h0.472
		c1.464-8.264,3.392-16.44,5.768-24.488l10.752-37.896h13.6l-24.336,75.488h-12.48l-11.536-36c-2.664-8.144-4.904-16.424-6.712-24.8
		h-0.312c-1.8,8.448-4.088,16.784-6.856,24.96l-12.168,35.872h-12.48l-22.768-75.536L305.88,156.352L305.88,156.352z"/>
</g>
<polygon style="fill:#E21B1B;" points="0.04,183.216 0.04,112.712 70.544,112.712 "/>
</svg>